<svg width="3840" height="1035" viewBox="0 0 3840 1035" fill="none" xmlns="http://www.w3.org/2000/svg">
<mask id="mask0_6_84" style="mask-type:alpha" maskUnits="userSpaceOnUse" x="-3" y="0" width="3845" height="1035">
<path d="M0 163.014C45.1244 257.631 616.777 24.4587 1190.6 244.547C1764.43 464.636 1357.91 148.509 1582.65 114.995C1807.38 81.4816 2133 114.995 2458.12 287.565C2783.24 460.134 2757.85 843.911 3069.9 809.775C3423.8 771.061 3147.48 -41.9213 3500.4 4.95075C3655.03 25.4876 3840 215.536 3840 215.536M0 183.023C45.1244 277.639 616.777 44.4673 1190.6 264.556C1764.43 484.644 1357.91 168.517 1582.65 135.004C1807.38 101.49 2133 135.004 2458.12 307.573C2783.24 480.143 2757.85 863.919 3069.9 829.783C3423.8 791.07 3147.48 -21.9127 3500.4 24.9594C3655.03 45.4963 3840 235.544 3840 235.544M0 203.031C45.1244 297.647 616.777 64.4754 1190.6 284.564C1764.43 504.653 1357.91 188.525 1582.65 155.012C1807.38 121.498 2133 155.012 2458.12 327.581C2783.24 500.151 2757.85 883.927 3069.9 849.791C3423.8 811.078 3147.48 -1.90461 3500.4 44.9675C3655.03 65.5044 3840 255.552 3840 255.552M0 223.039C45.1244 317.655 616.777 84.4835 1190.6 304.572C1764.43 524.661 1357.91 208.533 1582.65 175.02C1807.38 141.506 2133 175.02 2458.12 347.589C2783.24 520.159 2757.85 903.935 3069.9 869.799C3423.8 831.086 3147.48 18.1034 3500.4 64.9755C3655.03 85.5124 3840 275.56 3840 275.56M0 243.047C45.1244 337.663 616.777 104.492 1190.6 324.58C1764.43 544.669 1357.91 228.541 1582.65 195.028C1807.38 161.514 2133 195.028 2458.12 367.597C2783.24 540.167 2757.85 923.943 3069.9 889.807C3423.8 851.094 3147.48 38.1115 3500.4 84.9836C3655.03 105.52 3840 295.568 3840 295.568M0 263.055C45.1244 357.671 616.777 124.5 1190.6 344.588C1764.43 564.677 1357.91 248.549 1582.65 215.036C1807.38 181.522 2133 215.036 2458.12 387.605C2783.24 560.175 2757.85 943.952 3069.9 909.815C3423.8 871.102 3147.48 58.1196 3500.4 104.992C3655.03 125.529 3840 315.576 3840 315.576M0 283.063C45.1244 377.68 616.777 144.508 1190.6 364.596C1764.43 584.685 1357.91 268.558 1582.65 235.044C1807.38 201.53 2133 235.044 2458.12 407.613C2783.24 580.183 2757.85 963.96 3069.9 929.824C3423.8 891.11 3147.48 78.1276 3500.4 125C3655.03 145.537 3840 335.584 3840 335.584M0 303.071C45.1244 397.688 616.777 164.516 1190.6 384.604C1764.43 604.693 1357.91 288.566 1582.65 255.052C1807.38 221.539 2133 255.052 2458.12 427.622C2783.24 600.191 2757.85 983.968 3069.9 949.832C3423.8 911.118 3147.48 98.1357 3500.4 145.008C3655.03 165.545 3840 355.593 3840 355.593M0 323.079C45.1244 417.696 616.777 184.524 1190.6 404.612C1764.43 624.701 1357.91 308.574 1582.65 275.06C1807.38 241.547 2133 275.06 2458.12 447.63C2783.24 620.199 2757.85 1003.98 3069.9 969.84C3423.8 931.126 3147.48 118.144 3500.4 165.016C3655.03 185.553 3840 375.601 3840 375.601M0 343.087C45.1244 437.704 616.777 204.532 1190.6 424.62C1764.43 644.709 1357.91 328.582 1582.65 295.068C1807.38 261.555 2133 295.068 2458.12 467.638C2783.24 640.207 2757.85 1023.98 3069.9 989.848C3423.8 951.134 3147.48 138.152 3500.4 185.024C3655.03 205.561 3840 395.609 3840 395.609M0 363.096C45.1244 457.712 616.777 224.54 1190.6 444.628C1764.43 664.717 1357.91 348.59 1582.65 315.076C1807.38 281.563 2133 315.076 2458.12 487.646C2783.24 660.215 2757.85 1043.99 3069.9 1009.86C3423.8 971.142 3147.48 158.16 3500.4 205.032C3655.03 225.569 3840 415.617 3840 415.617M0 383.104C45.1244 477.72 616.777 244.548 1190.6 464.636C1764.43 684.725 1357.91 368.598 1582.65 335.084C1807.38 301.571 2133 335.084 2458.12 507.654C2783.24 680.223 2757.85 1064 3069.9 1029.86C3423.8 991.15 3147.48 178.168 3500.4 225.04C3655.03 245.577 3840 435.625 3840 435.625" stroke="#FF5277" stroke-width="5"/>
</mask>
<g mask="url(#mask0_6_84)">
<rect y="-19" width="3840" height="1079" fill="#FF5277"/>
</g>
</svg>
